<svg _ngcontent-serverApp-c97="" width="14" height="18" viewBox="0 0 14 18" fill="none" xmlns="http://www.w3.org/2000/svg"><path _ngcontent-serverApp-c97="" fill-rule="evenodd" clip-rule="evenodd" d="M7.58953 1.89319C7.39589 1.69934 7.11771 1.57473 6.81635 1.57473C6.51908 1.57473 6.24635 1.69934 6.05135 1.89319L6.04453 1.90011C5.8618 2.08842 5.74317 2.3598 5.73362 2.65334V2.68103V2.70734C5.74044 2.97734 5.8468 3.23073 6.00635 3.42042L6.05135 3.45919C6.23953 3.65026 6.49862 3.77211 6.78226 3.78319H6.78908H6.80408H6.81635H6.83135H6.84499H6.85317C7.13544 3.77211 7.40271 3.65026 7.58953 3.46611L7.59362 3.45919C7.77635 3.26811 7.89635 2.99949 7.90726 2.70734V2.68103V2.65334C7.89635 2.3598 7.77635 2.08842 7.58953 1.90011V1.89319ZM7.56226 14.165C7.38226 13.9809 7.12726 13.8604 6.84771 13.859H6.84499H6.83135H6.81635H6.80408H6.78908H6.78362C6.51089 13.8604 6.25862 13.9809 6.07862 14.1581L6.07044 14.165C5.8918 14.3547 5.77862 14.6109 5.7718 14.8933V14.921V14.9487C5.77589 15.216 5.8768 15.4527 6.03499 15.6355L6.07862 15.6743C6.26271 15.8626 6.52998 15.983 6.81635 15.983C7.1068 15.983 7.37271 15.8626 7.56226 15.6756L7.56635 15.6743C7.74362 15.4915 7.85817 15.2367 7.86908 14.9487V14.921V14.8933C7.85817 14.6109 7.74362 14.3547 7.56226 14.165ZM11.1309 16.3721C11.1309 16.4718 11.1704 16.5632 11.2345 16.6269V16.6296C11.2986 16.6933 11.3859 16.7349 11.4827 16.7349H12.1018C12.1986 16.7349 12.2873 16.6933 12.3513 16.6296L12.3527 16.6269C12.4154 16.5632 12.4563 16.4718 12.4563 16.3721V13.4672C12.4563 13.3675 12.4154 13.2761 12.3527 13.2124L12.3513 13.2096C12.2873 13.146 12.1986 13.1044 12.1018 13.1044H11.4827C11.3859 13.1044 11.2986 13.146 11.2345 13.2096V13.2124C11.1704 13.2761 11.1309 13.3675 11.1309 13.4672V16.3721ZM10.7832 3.9078C10.7559 4.00334 10.7723 4.10303 10.8145 4.18196C10.8595 4.26088 10.94 4.32596 11.0327 4.34949L11.6273 4.51288C11.7241 4.5378 11.8195 4.52119 11.8973 4.47826C11.9777 4.43119 12.0377 4.35503 12.0663 4.25949L12.8041 1.45011C12.83 1.35457 12.8123 1.25626 12.7686 1.17734C12.7236 1.09842 12.6486 1.03334 12.5532 1.0098L11.9586 0.846417C11.87 0.822879 11.78 0.833956 11.7077 0.872725L11.69 0.882418C11.6095 0.929494 11.5482 1.00565 11.5263 1.0998C11.24 2.17842 11.0477 2.90396 10.7832 3.9078ZM2.50726 13.4672C2.50726 13.3675 2.46635 13.2761 2.40362 13.2124L2.40089 13.2096C2.34089 13.146 2.24953 13.1044 2.14998 13.1044H1.53771C1.43953 13.1044 1.34817 13.146 1.28544 13.2096L1.28408 13.2124C1.22271 13.2761 1.17908 13.3675 1.17908 13.4672V16.3721C1.17908 16.4718 1.22271 16.5632 1.28408 16.6269L1.28544 16.6296C1.34817 16.6933 1.43953 16.7349 1.53771 16.7349H2.14998C2.24953 16.7349 2.34089 16.6933 2.40089 16.6296L2.40362 16.6269C2.46635 16.5632 2.50726 16.4718 2.50726 16.3721V13.4672ZM2.85498 1.45011C2.87953 1.35457 2.86726 1.25626 2.82089 1.17734C2.7718 1.09842 2.69817 1.03334 2.60408 1.0098L2.01089 0.846417C1.92362 0.822879 1.82817 0.833956 1.75589 0.872725L1.74089 0.882418C1.66044 0.929494 1.59635 1.00565 1.57589 1.0998L0.834076 3.9078C0.805439 4.00334 0.82453 4.10303 0.865439 4.18196C0.913167 4.26088 0.992258 4.32596 1.08498 4.34949L1.67953 4.51288C1.76953 4.5378 1.8718 4.52119 1.9468 4.47826C2.02998 4.43119 2.08862 4.35503 2.11726 4.25949C2.40089 3.18226 2.5918 2.45673 2.85498 1.45011ZM6.81635 0.696879C7.35498 0.696879 7.84453 0.917033 8.19771 1.27703V1.2798L8.20044 1.27703C8.39544 1.47365 8.54953 1.71457 8.64908 1.98319H10.4382L10.7286 0.886571C10.8104 0.570879 11.0204 0.31611 11.2795 0.162417L11.3095 0.143033C11.5659 0.00318669 11.8754 -0.0397364 12.1686 0.0405713L12.7645 0.199802C13.0768 0.288417 13.3304 0.494725 13.475 0.759187C13.6332 1.02642 13.6809 1.34626 13.5991 1.66473L12.8586 4.47272C12.7727 4.79119 12.5654 5.04457 12.3063 5.19688C12.0486 5.35057 11.7268 5.40457 11.4132 5.31734L10.8213 5.15811C10.5091 5.07088 10.2554 4.86319 10.1082 4.59872C9.95953 4.33288 9.90226 4.01165 9.98817 3.69457L10.07 3.37611H8.64908C8.54953 3.64196 8.39544 3.88288 8.20044 4.07949L8.19771 4.08088L8.18817 4.09196C7.99317 4.28442 7.76135 4.43673 7.50362 4.53503V13.0629C7.76544 13.1626 8.00271 13.3204 8.19771 13.517V13.5212L8.20044 13.517C8.39544 13.7178 8.54953 13.956 8.64908 14.2204H10.3073V13.4672C10.3073 13.1418 10.4382 12.8386 10.6509 12.6253L10.6577 12.6212C10.8691 12.408 11.1623 12.2709 11.4827 12.2709H12.1018C12.4223 12.2709 12.7209 12.408 12.9295 12.6212L12.9336 12.6253C13.145 12.8386 13.2773 13.1418 13.2773 13.4672V16.3721C13.2773 16.7003 13.145 16.9993 12.9336 17.2167H12.9295C12.7209 17.4341 12.4223 17.5684 12.1018 17.5684H11.4827C11.1623 17.5684 10.8691 17.4341 10.6577 17.2167H10.6509C10.4382 16.9993 10.3073 16.7003 10.3073 16.3721V15.6147H8.64908C8.54953 15.8833 8.39544 16.1215 8.20044 16.3209L8.19771 16.3223L8.18817 16.332C7.83635 16.6864 7.35089 16.9052 6.81635 16.9052C6.27908 16.9052 5.78817 16.6809 5.43908 16.3223L5.39953 16.2821C5.22226 16.091 5.08317 15.8653 4.98908 15.6147H3.33089V16.3721C3.33089 16.7003 3.19726 16.9993 2.9818 17.2167C2.76771 17.4341 2.47453 17.5684 2.14998 17.5684H1.53771C1.21317 17.5684 0.917258 17.4341 0.709985 17.2167H0.70453C0.491803 16.9993 0.360894 16.7003 0.360894 16.3721V13.4672C0.360894 13.1418 0.491803 12.8386 0.70453 12.6253L0.709985 12.6212C0.917258 12.408 1.21317 12.2709 1.53771 12.2709H2.14998C2.47453 12.2709 2.76771 12.408 2.9818 12.6212V12.6253C3.19726 12.8386 3.33089 13.1418 3.33089 13.4672V14.2204H4.99317C5.09135 13.9573 5.24135 13.7192 5.43908 13.5212V13.517L5.44999 13.5073C5.64226 13.3149 5.87271 13.1626 6.13317 13.0629V4.5378C5.86862 4.43672 5.63135 4.28165 5.43908 4.08088L5.39953 4.03934C5.22226 3.85103 5.08317 3.62534 4.98908 3.37611H3.19726L2.90817 4.47272C2.82362 4.79119 2.61908 5.04457 2.35862 5.19688C2.09953 5.35057 1.7818 5.40457 1.46817 5.31734L0.873621 5.15811C0.561348 5.07088 0.309076 4.86319 0.161803 4.59872C0.00634851 4.33288 -0.0441061 4.01165 0.0404394 3.69457L0.778167 0.886571C0.861348 0.570879 1.07135 0.31611 1.3318 0.162417L1.36044 0.143033C1.61544 0.00318669 1.92362 -0.0397364 2.21953 0.0405713L2.81408 0.199802C3.12908 0.288417 3.37726 0.494725 3.53135 0.759187C3.68135 1.02642 3.7318 1.34626 3.64998 1.66473L3.56544 1.98319H4.99317C5.09135 1.71873 5.24135 1.47642 5.43908 1.2798V1.27703L5.44999 1.26596C5.80453 0.915648 6.28589 0.696879 6.81635 0.696879Z" fill="#01602A"></path></svg>
