<svg _ngcontent-serverApp-c115="" width="12" height="24" viewBox="0 0 12 24" fill="none" xmlns="http://www.w3.org/2000/svg"><path _ngcontent-serverApp-c115="" fill-rule="evenodd" clip-rule="evenodd" d="M8.39644 21.2514C8.39644 22.558 7.33723 23.6186 6.02934 23.6186C4.72276 23.6186 3.66223 22.558 3.66223 21.2514V2.68303C3.66223 1.37645 4.72276 0.315922 6.02934 0.315922C7.33723 0.315922 8.39644 1.37645 8.39644 2.68303V21.2514Z" fill="#01602A"></path><path _ngcontent-serverApp-c115="" fill-rule="evenodd" clip-rule="evenodd" d="M11.1116 11.8918C11.1116 14.7497 8.79583 17.0668 5.93662 17.0668C3.07873 17.0668 0.762939 14.7497 0.762939 11.8918C0.762939 9.03395 3.07873 6.71684 5.93662 6.71684C8.79583 6.71684 11.1116 9.03395 11.1116 11.8918Z" fill="#FFFFFF"></path><path _ngcontent-serverApp-c115="" fill-rule="evenodd" clip-rule="evenodd" d="M11.1116 11.8918C11.1116 14.7497 8.79583 17.0668 5.93662 17.0668C3.07873 17.0668 0.762939 14.7497 0.762939 11.8918C0.762939 9.03395 3.07873 6.71684 5.93662 6.71684C8.79583 6.71684 11.1116 9.03395 11.1116 11.8918Z" stroke="#01602A"></path></svg>
