<svg _ngcontent-serverApp-c167="" width="20" height="18" viewBox="0 0 20 18" fill="none" xmlns="http://www.w3.org/2000/svg"><path _ngcontent-serverApp-c167="" fill-rule="evenodd" clip-rule="evenodd" d="M5.78626 3.31149H11.2017V7.32806H5.78626V3.31149ZM5.3504 8.20749H11.6427C11.8818 8.20749 12.0811 8.01078 12.0811 7.76906V2.87177C12.0811 2.63006 11.8818 2.43335 11.6427 2.43335H5.3504C5.1074 2.43335 4.9094 2.63006 4.9094 2.87177V7.76906C4.9094 8.01078 5.1074 8.20749 5.3504 8.20749ZM13.2113 16.8475H3.78055V1.0242H13.2113V16.8475ZM19.1757 4.30792L17.7897 2.92835C17.7691 2.89877 17.7408 2.87177 17.7125 2.84863L16.9758 2.1132C16.6904 1.82906 16.2275 1.82906 15.9421 2.11706C15.6631 2.4012 15.6631 2.86535 15.946 3.14949L16.504 3.70363V5.22849C16.504 5.6322 16.8331 5.95878 17.2343 5.95878C17.6418 5.95878 17.9684 5.6322 17.9684 5.22849V5.16549L18.142 5.34163C18.1664 5.36349 18.1908 5.38663 18.2165 5.40849V12.7525C18.2165 13.3053 17.9221 13.6602 17.5441 13.8119C17.3924 13.8711 17.2227 13.9032 17.0504 13.9032C16.882 13.9032 16.7084 13.8711 16.5541 13.8119C16.18 13.6602 15.8804 13.3053 15.8804 12.7525V7.97735C15.8804 7.4322 15.6605 6.92949 15.3018 6.56178L15.2787 6.53478C14.9984 6.25192 14.6358 6.05135 14.2295 5.97163V0.731061C14.2295 0.328632 13.903 -0.000510693 13.5018 -0.000510693H3.49383C3.08626 -0.000510693 2.7584 0.328632 2.7584 0.731061V16.8809H1.09083C0.687118 16.8809 0.356689 17.2113 0.356689 17.6151C0.356689 17.9211 0.687118 17.9069 1.09083 17.9069H15.8984C16.306 17.9069 16.6004 17.9211 16.6325 17.6151C16.6788 17.2139 16.306 16.8809 15.8984 16.8809H14.2295V6.87935C14.3941 6.93978 14.5407 7.03235 14.6577 7.15578L14.6808 7.17378C14.8788 7.38463 15.0048 7.66878 15.0048 7.97735V12.7525C15.0048 13.7219 15.541 14.3481 16.2314 14.6232C16.4898 14.7273 16.7727 14.7813 17.0504 14.7813C17.3281 14.7813 17.6058 14.7273 17.8681 14.6232C18.5598 14.3481 19.096 13.7219 19.096 12.7525V5.40592C19.1255 5.38663 19.1513 5.36349 19.1757 5.34035C19.4611 5.05363 19.4585 4.58949 19.1757 4.30792Z" fill="#01602A"></path></svg>
