<svg _ngcontent-serverApp-c240="" width="17" height="23" viewBox="0 0 17 23" fill="none" xmlns="http://www.w3.org/2000/svg"><path _ngcontent-serverApp-c240="" fill-rule="evenodd" clip-rule="evenodd" d="M2.37854 21.8538C2.37854 22.4276 2.91995 22.8934 3.587 22.8934C4.25534 22.8934 4.79675 22.4276 4.79675 21.8538V21.6541H2.37854V21.8538Z" fill="#01602A"></path><path _ngcontent-serverApp-c240="" fill-rule="evenodd" clip-rule="evenodd" d="M11.8493 21.8538C11.8493 22.4276 12.3907 22.8934 13.0591 22.8934C13.7274 22.8934 14.2688 22.4276 14.2688 21.8538V21.6541H11.8493V21.8538Z" fill="#01602A"></path><path _ngcontent-serverApp-c240="" fill-rule="evenodd" clip-rule="evenodd" d="M6.13836 6.5864V2.01004H6.13707C6.30545 1.49076 6.81577 1.11113 7.42453 1.11113H9.65623C10.265 1.11113 10.7727 1.49076 10.9424 2.01004H10.9372V6.5864H12.4242V2.01004H12.4293C12.3944 0.94531 11.3854 0.0911283 10.1394 0.0911283H6.94011C5.6941 0.0911283 4.6851 0.94531 4.65143 2.01004V6.5864H6.13836Z" fill="#01602A"></path><path _ngcontent-serverApp-c240="" fill-rule="evenodd" clip-rule="evenodd" d="M15.3998 5.56095H1.54856C0.693698 5.56095 -0.000549316 6.15658 -0.000549316 6.89186V11.5315H16.9295H16.9463V6.89186C16.9463 6.15658 16.2547 5.56095 15.3998 5.56095ZM15.3998 6.65186C15.5384 6.65186 15.6511 6.75986 15.6511 6.89186V10.4406H1.29469V6.89186C1.29469 6.75986 1.40867 6.65186 1.54856 6.65186H15.3998Z" fill="#01602A"></path><path _ngcontent-serverApp-c240="" fill-rule="evenodd" clip-rule="evenodd" d="M16.9467 12.5523H16.9376V12.5697H0.00888356L-0.000183105 20.3228C-0.000183105 21.0581 0.692769 21.6548 1.54763 21.6548H15.4002C16.2551 21.6548 16.9467 21.0581 16.9467 20.3228V12.5523ZM15.6515 13.6606V20.3228C15.6515 20.4559 15.5388 20.5639 15.4002 20.5639H1.54763C1.40904 20.5639 1.29506 20.4559 1.29506 20.3239L1.30283 13.6606H15.6515Z" fill="#01602A"></path></svg>
