<svg _ngcontent-serverApp-c253="" width="30" height="21" viewBox="0 0 30 21" fill="none" xmlns="http://www.w3.org/2000/svg"><path _ngcontent-serverApp-c253="" fill-rule="evenodd" clip-rule="evenodd" d="M10.5636 15.6115L8.5885 9.6115H9.43239L10.375 12.5669C10.6351 13.377 10.8596 14.1071 11.0212 14.8102H11.0391C11.2099 14.116 11.4613 13.3592 11.7304 12.576L12.7536 9.6115H13.5885L11.4252 15.6115H10.5636Z" fill="#01602A"></path><path _ngcontent-serverApp-c253="" fill-rule="evenodd" clip-rule="evenodd" d="M17.0821 13.7367C17.0821 12.905 16.607 12.4045 15.8805 12.4045C15.4051 12.4045 14.9656 12.6996 14.7506 13.1197C14.6966 13.2091 14.6607 13.3253 14.6607 13.4684C14.6786 14.4251 15.1181 15.1316 15.9433 15.1316C16.6247 15.1316 17.0821 14.5684 17.0821 13.7367ZM17.3061 10.3834C17.1449 10.3747 16.9389 10.3834 16.7144 10.4194C15.4769 10.6251 14.8221 11.5281 14.6878 12.4847H14.7145C14.9925 12.1183 15.4769 11.8142 16.1224 11.8142C17.1539 11.8142 17.8804 12.5565 17.8804 13.692C17.8804 14.7562 17.1539 15.7397 15.9433 15.7397C14.6966 15.7397 13.8804 14.7739 13.8804 13.2627C13.8804 12.1183 14.2932 11.215 14.867 10.6427C15.3513 10.169 15.9971 9.87385 16.7326 9.78442C16.9655 9.74865 17.1628 9.7397 17.3061 9.7397V10.3834Z" fill="#01602A"></path><path _ngcontent-serverApp-c253="" fill-rule="evenodd" clip-rule="evenodd" d="M11.9118 4.3007H10.2264V4.30095C9.88302 4.3007 9.56412 4.48523 9.38725 4.78168L8.20823 6.7698H5.05431C4.51902 6.7698 4.07068 7.21398 4.07068 7.75292V16.6308C4.07068 17.1697 4.51902 17.6211 5.05431 17.6211H7.79596C8.12968 17.6211 8.45377 17.7315 8.71462 17.9415L10.089 19.0559C10.5233 19.4056 11.0662 19.5948 11.6225 19.5948H21.2214C21.7567 19.5948 22.1979 19.1434 22.1979 18.6042V15.6474H23.782L24.1728 17.2426C24.2254 17.4649 24.423 17.6216 24.65 17.6211H27.1022C27.9082 17.6211 28.5707 16.9544 28.5707 16.1428V9.23144C28.5707 8.41993 27.9082 7.75292 27.1022 7.75292H24.65C24.4252 7.75167 24.2283 7.90487 24.1728 8.12448L23.782 9.72661H22.1979V7.75292C22.1979 7.21398 21.7567 6.7698 21.2214 6.7698H18.5595L17.3731 4.78168C17.1962 4.48523 16.8773 4.30095 16.534 4.30095H14.8486L11.9118 4.3007Z" stroke="#01602A"></path><path _ngcontent-serverApp-c253="" d="M9.7301 1.17647H17.2301" stroke-linecap="round" stroke="#01602A"></path><path _ngcontent-serverApp-c253="" d="M4.07075 11.7647H1" stroke="#01602A"></path><path _ngcontent-serverApp-c253="" d="M13.3295 4.18244V1.11169" stroke="#01602A"></path><path _ngcontent-serverApp-c253="" d="M1 15.9377V8.30652" stroke-linecap="round" stroke="#01602A"></path></svg>
